<svg xmlns="http://www.w3.org/2000/svg" viewBox="0 0 960 600" role="img" aria-label="Ink wash scrolls and knowledge map">
  <rect width="960" height="600" fill="#fff8ea"/>
  <path d="M0 364c150-88 300-92 450-14 130 68 282 62 456-20l54-26v296H0z" fill="#e4f2ed"/>
  <g fill="none" stroke="#17231f" stroke-linecap="round" opacity=".68">
    <path d="M220 184c96-34 198-34 306 0 86 28 168 20 246-24" stroke-width="8"/>
    <path d="M234 244c96-28 184-26 266 6 96 36 180 30 252-18" stroke-width="5"/>
    <path d="M262 312c68-18 132-12 192 18 92 46 190 38 292-24" stroke-width="5"/>
  </g>
  <path d="M168 174h208c34 0 62 28 62 62v196H230c-34 0-62-28-62-62z" fill="#fffaf0" stroke="#0f6b61" stroke-width="8"/>
  <path d="M522 174h208v196c0 34-28 62-62 62H460V236c0-34 28-62 62-62z" fill="#fffaf0" stroke="#0f6b61" stroke-width="8"/>
  <g fill="#b98d28">
    <circle cx="318" cy="270" r="12"/><circle cx="604" cy="246" r="12"/><circle cx="676" cy="334" r="10"/>
  </g>
  <path d="M318 270c92-56 188-64 286-24m0 0c32 34 56 64 72 88" fill="none" stroke="#b98d28" stroke-width="5" stroke-linecap="round"/>
</svg>
