<svg xmlns="http://www.w3.org/2000/svg" viewBox="0 0 960 600" role="img" aria-label="Ink wash digital content creation">
  <rect width="960" height="600" fill="#fff8e8"/>
  <path d="M0 388c122-64 244-70 366-18 126 54 256 44 390-30 84-46 152-58 204-36v296H0z" fill="#e1f1eb"/>
  <rect x="286" y="148" width="344" height="278" rx="22" fill="#fffaf0" stroke="#17231f" stroke-width="7"/>
  <path d="M340 218h232M340 284h156M340 350h204" stroke="#0f7669" stroke-width="12" stroke-linecap="round" opacity=".82"/>
  <path d="M608 392c44-62 82-112 116-148 18-20 44 4 28 26-36 48-74 92-116 132z" fill="#b98d28" opacity=".84"/>
  <path d="M184 442c76-48 152-48 228 0" fill="none" stroke="#17231f" stroke-width="10" stroke-linecap="round" opacity=".5"/>
  <g fill="none" stroke="#b98d28" stroke-width="4" opacity=".62">
    <path d="M232 184c44 22 72 56 84 102"/>
    <path d="M742 158c-38 36-58 78-58 126"/>
  </g>
</svg>
