<svg xmlns="http://www.w3.org/2000/svg" viewBox="0 0 960 600" role="img" aria-label="Ink wash shield for academic integrity">
  <rect width="960" height="600" fill="#fff8e8"/>
  <path d="M0 390c146-76 280-84 402-24 150 74 306 54 468-60 34-24 64-36 90-36v330H0z" fill="#dff0ea"/>
  <path d="M480 124c78 42 156 60 234 54 6 154-72 272-234 354-162-82-240-200-234-354 78 6 156-12 234-54z" fill="#fffaf0" stroke="#17231f" stroke-width="8"/>
  <path d="M480 168c58 30 116 44 174 40-6 106-64 190-174 254-110-64-168-148-174-254 58 4 116-10 174-40z" fill="#0f7669" opacity=".24" stroke="#0f7669" stroke-width="6"/>
  <rect x="414" y="284" width="132" height="116" rx="18" fill="#17231f" opacity=".82"/>
  <path d="M438 284v-34c0-34 22-58 42-58s42 24 42 58v34" fill="none" stroke="#b98d28" stroke-width="12" stroke-linecap="round"/>
  <path d="M372 446c78 26 150 26 216 0" fill="none" stroke="#b98d28" stroke-width="6" stroke-linecap="round"/>
</svg>
