<svg xmlns="http://www.w3.org/2000/svg" viewBox="0 0 960 600" role="img" aria-label="Ink wash AI light formation">
  <rect width="960" height="600" fill="#fff8e8"/>
  <circle cx="722" cy="126" r="76" fill="#ecd17d" opacity=".68"/>
  <path d="M0 428c126-76 250-80 372-12 146 82 300 64 462-54 42-30 84-46 126-48v286H0z" fill="#d8eee8"/>
  <g fill="none" stroke="#17231f" stroke-width="4" opacity=".28">
    <circle cx="480" cy="286" r="168"/><circle cx="480" cy="286" r="112"/><circle cx="480" cy="286" r="56"/>
  </g>
  <g fill="#0f7669" stroke="#fffaf0" stroke-width="5">
    <circle cx="480" cy="286" r="22"/><circle cx="368" cy="214" r="16"/><circle cx="610" cy="196" r="16"/>
    <circle cx="642" cy="344" r="16"/><circle cx="332" cy="348" r="16"/><circle cx="478" cy="430" r="16"/>
  </g>
  <g stroke="#b98d28" stroke-width="5" stroke-linecap="round" opacity=".82">
    <path d="M480 286 368 214M480 286l130-90M480 286l162 58M480 286 332 348M480 286l-2 144"/>
  </g>
  <path d="M222 458c172-48 340-48 504 0" fill="none" stroke="#17231f" stroke-width="12" stroke-linecap="round" opacity=".48"/>
</svg>
