<svg xmlns="http://www.w3.org/2000/svg" viewBox="0 0 1440 760" role="img" aria-label="Ink road to dawn with knowledge stones">
  <defs>
    <linearGradient id="dawn" x1="0" x2="1" y1="0" y2="1">
      <stop stop-color="#fffaf0"/>
      <stop offset=".42" stop-color="#e6f1ea"/>
      <stop offset="1" stop-color="#22304c"/>
    </linearGradient>
    <radialGradient id="sun" cx=".5" cy=".5" r=".5">
      <stop stop-color="#fffdf2"/>
      <stop offset=".52" stop-color="#eacb72"/>
      <stop offset="1" stop-color="#eacb72" stop-opacity="0"/>
    </radialGradient>
  </defs>
  <rect width="1440" height="760" fill="url(#dawn)"/>
  <circle cx="720" cy="216" r="132" fill="url(#sun)" opacity=".82"/>
  <path d="M0 496c160-80 318-102 474-66 94 22 198 10 312-36 250-102 444-64 654 70v296H0z" fill="#fff5e2" opacity=".68"/>
  <path d="M0 656 210 494l112 92 132-178 150 182 180-254 172 268 126-116 358 214v58H0z" fill="#17231f" opacity=".62"/>
  <path d="M616 760c20-166 64-306 132-420 32 122 86 260 168 420z" fill="#fff8e8" opacity=".76"/>
  <path d="M694 760c26-168 46-282 58-342 30 86 62 200 96 342z" fill="#0f6b61" opacity=".38"/>
  <g fill="#d8b65e" opacity=".82">
    <circle cx="704" cy="600" r="14"/><circle cx="738" cy="514" r="10"/><circle cx="774" cy="442" r="8"/>
    <circle cx="812" cy="380" r="6"/><circle cx="850" cy="330" r="5"/><circle cx="888" cy="290" r="4"/>
  </g>
  <path d="M582 440c74 22 164 20 270-6" fill="none" stroke="#fffaf0" stroke-width="6" stroke-linecap="round" opacity=".82"/>
</svg>
