<svg xmlns="http://www.w3.org/2000/svg" viewBox="0 0 1440 760" role="img" aria-label="Six mythic gates over cloud road">
  <defs>
    <linearGradient id="bg" x1="0" x2="1" y1="0" y2="1">
      <stop stop-color="#fffaf0"/>
      <stop offset=".58" stop-color="#d7eee7"/>
      <stop offset="1" stop-color="#1b2a47"/>
    </linearGradient>
    <filter id="blur"><feGaussianBlur stdDeviation="12"/></filter>
  </defs>
  <rect width="1440" height="760" fill="url(#bg)"/>
  <circle cx="1184" cy="128" r="98" fill="#f1d88d" opacity=".72"/>
  <path d="M0 420c180-92 312-118 496-72 152 38 278 38 440-20 214-76 374-36 504 52v380H0z" fill="#fff7e8" opacity=".62"/>
  <g filter="url(#blur)" opacity=".45" fill="#fffdf2">
    <path d="M-80 314c178-58 344-56 498 6 146 58 302 48 468-28 142-64 332-38 586 74-210 14-392 10-548-12-152-22-310-4-474 52-174 60-352 30-530-92z"/>
  </g>
  <g fill="none" stroke="#16332e" stroke-width="14" stroke-linecap="round" opacity=".74">
    <path d="M260 530V342c0-64 48-112 110-112s110 48 110 112v188"/>
    <path d="M524 548V330c0-78 58-136 136-136s136 58 136 136v218"/>
    <path d="M878 530V342c0-64 48-112 110-112s110 48 110 112v188"/>
  </g>
  <g fill="none" stroke="#0f7669" stroke-width="8" opacity=".78">
    <path d="M180 612c208-72 400-84 574-36 190 52 358 34 520-54"/>
    <path d="M238 640c166-32 324-28 472 12 238 64 432 44 582-64"/>
  </g>
  <g fill="#b98d28" opacity=".58">
    <circle cx="370" cy="230" r="8"/><circle cx="660" cy="194" r="8"/><circle cx="988" cy="230" r="8"/>
    <circle cx="260" cy="530" r="6"/><circle cx="524" cy="548" r="6"/><circle cx="878" cy="530" r="6"/>
  </g>
</svg>
