<svg xmlns="http://www.w3.org/2000/svg" viewBox="0 0 400 540" role="img" aria-label="Mythic goddess with flowing silk">
  <path d="M202 42c50 0 82 36 82 82 0 44-34 78-82 78s-82-34-82-78c0-46 32-82 82-82z" fill="#f2d9ad" stroke="#17231f" stroke-width="7"/>
  <path d="M122 122c44-58 116-88 178-44 18 14 32 42 40 86-72-42-144-46-218-42z" fill="#17231f"/>
  <path d="M142 208c40 28 80 28 120 0 42 80 70 174 84 282-92 22-188 22-288 0 14-108 42-202 84-282z" fill="#fffaf0" stroke="#17231f" stroke-width="7"/>
  <path d="M84 286c-48 58-68 112-58 162 64-28 116-78 154-150" fill="none" stroke="#0f7669" stroke-width="14" stroke-linecap="round" opacity=".72"/>
  <path d="M314 286c48 58 68 112 58 162-64-28-116-78-154-150" fill="none" stroke="#b98d28" stroke-width="14" stroke-linecap="round" opacity=".72"/>
  <path d="M158 244c34 52 58 130 72 234" fill="none" stroke="#0f7669" stroke-width="7" stroke-linecap="round"/>
</svg>
